<?xml version="1.0" encoding="utf-8"?>
<!-- Generator: Adobe Illustrator 26.5.0, SVG Export Plug-In . SVG Version: 6.00 Build 0)  -->
<svg version="1.1" id="Layer_1" xmlns="http://www.w3.org/2000/svg" xmlns:xlink="http://www.w3.org/1999/xlink" x="0px" y="0px"
	 viewBox="0 0 64 64" style="enable-background:new 0 0 64 64;" xml:space="preserve">
<style type="text/css">
	.st0{fill:none;stroke:#FFFDFD;stroke-width:7;stroke-linecap:round;stroke-miterlimit:10;}
	.st1{fill:none;stroke:#FFFDFD;stroke-width:8;stroke-linecap:round;stroke-miterlimit:10;}
</style>
<path d="M32,64c17.67,0,32-14.33,32-32C64,14.33,49.67,0,32,0S0,14.33,0,32C0,49.67,14.33,64,32,64z M35.5,48.89
	c0,1.93-1.57,3.5-3.5,3.5s-3.5-1.57-3.5-3.5V29.54c0-1.93,1.57-3.5,3.5-3.5s3.5,1.57,3.5,3.5V48.89z M29.17,14.23
	c0.75-0.75,1.78-1.18,2.83-1.18s2.08,0.43,2.83,1.18C35.57,14.97,36,16,36,17.05c0,1.06-0.43,2.09-1.17,2.83
	c-0.18,0.19-0.39,0.36-0.61,0.5c-0.22,0.14-0.45,0.27-0.69,0.37c-0.24,0.1-0.49,0.18-0.75,0.23c-0.51,0.1-1.05,0.1-1.56,0
	c-0.26-0.05-0.51-0.13-0.75-0.23c-0.24-0.1-0.47-0.23-0.69-0.37c-0.22-0.14-0.42-0.31-0.61-0.5c-0.18-0.18-0.35-0.39-0.5-0.6
	c-0.14-0.22-0.26-0.45-0.36-0.69c-0.1-0.25-0.18-0.5-0.23-0.75C28.03,17.58,28,17.31,28,17.05C28,16,28.43,14.97,29.17,14.23z"/>
</svg>
