<?xml version="1.0" encoding="UTF-8"?><svg id="a" xmlns="http://www.w3.org/2000/svg" width="20" height="20" viewBox="0 0 20 20"><path d="M13.61,2c2.42,0,4.39,1.97,4.39,4.39v7.22c0,2.42-1.97,4.39-4.39,4.39H6.39c-2.42,0-4.39-1.97-4.39-4.39V6.39c0-2.42,1.97-4.39,4.39-4.39h7.22m0-2H6.39C2.86,0,0,2.86,0,6.39v7.22c0,3.53,2.86,6.39,6.39,6.39h7.22c3.53,0,6.39-2.86,6.39-6.39V6.39c0-3.53-2.86-6.39-6.39-6.39h0Z" fill="#3f5268"/><line x1="10" y1="5.33" x2="10" y2="14.67" fill="none" stroke="#3f5268" stroke-linecap="round" stroke-miterlimit="10" stroke-width="2"/><line x1="14.67" y1="10" x2="5.33" y2="10" fill="none" stroke="#3f5268" stroke-linecap="round" stroke-miterlimit="10" stroke-width="2"/></svg>