<?xml version="1.0" encoding="utf-8"?>
<!-- Generator: Adobe Illustrator 26.5.0, SVG Export Plug-In . SVG Version: 6.00 Build 0)  -->
<svg version="1.1" id="Layer_1" xmlns="http://www.w3.org/2000/svg" xmlns:xlink="http://www.w3.org/1999/xlink" x="0px" y="0px"
	 viewBox="0 0 64 64" style="enable-background:new 0 0 64 64;" xml:space="preserve">
<g>
	<path d="M32,0C14.33,0,0,14.33,0,32c0,17.67,14.33,32,32,32s32-14.33,32-32C64,14.33,49.67,0,32,0z M28.23,48.96
		c-0.68,0.62-1.52,0.92-2.37,0.92c-0.95,0-1.89-0.38-2.58-1.13c-1.31-1.42-1.22-3.63,0.21-4.94L36.32,32L23.49,20.19
		c-1.43-1.31-1.52-3.52-0.21-4.95c1.31-1.42,3.53-1.51,4.95-0.2L46.65,32L28.23,48.96z"/>
</g>
</svg>
