<?xml version="1.0" encoding="utf-8"?>
<!-- Generator: Adobe Illustrator 26.5.0, SVG Export Plug-In . SVG Version: 6.00 Build 0)  -->
<svg version="1.1" id="Layer_1" xmlns="http://www.w3.org/2000/svg" xmlns:xlink="http://www.w3.org/1999/xlink" x="0px" y="0px"
	 viewBox="0 0 64 64" style="enable-background:new 0 0 64 64;" xml:space="preserve">
<style type="text/css">
	.st0{fill:none;stroke:#FFFDFD;stroke-width:7;stroke-linecap:round;stroke-miterlimit:10;}
	.st1{fill:none;stroke:#FFFDFD;stroke-width:8;stroke-linecap:round;stroke-miterlimit:10;}
</style>
<g>
	<path d="M-39.87,0c-17.67,0-32,14.33-32,32c0,17.67,14.33,32,32,32s32-14.33,32-32C-7.87,14.33-22.2,0-39.87,0z M-43.64,48.96
		c-0.68,0.62-1.52,0.92-2.37,0.92c-0.95,0-1.89-0.38-2.58-1.13c-1.31-1.42-1.22-3.63,0.21-4.94L-35.55,32l-12.83-11.81
		c-1.43-1.31-1.52-3.52-0.21-4.95c1.31-1.42,3.53-1.51,4.95-0.2L-25.22,32L-43.64,48.96z"/>
</g>
<path d="M32,0C14.33,0,0,14.33,0,32c0,17.67,14.33,32,32,32s32-14.33,32-32C64,14.33,49.67,0,32,0z M28.5,15.11
	c0-1.93,1.57-3.5,3.5-3.5s3.5,1.57,3.5,3.5v19.35c0,1.93-1.57,3.5-3.5,3.5s-3.5-1.57-3.5-3.5V15.11z M34.83,49.77
	c-0.75,0.75-1.78,1.18-2.83,1.18s-2.08-0.43-2.83-1.18C28.43,49.03,28,48,28,46.95c0-1.06,0.43-2.09,1.17-2.83
	c0.18-0.19,0.39-0.36,0.61-0.5c0.22-0.14,0.45-0.27,0.69-0.37c0.24-0.1,0.49-0.18,0.75-0.23c0.51-0.1,1.05-0.1,1.56,0
	c0.26,0.05,0.51,0.13,0.75,0.23c0.24,0.1,0.47,0.23,0.69,0.37c0.22,0.14,0.42,0.31,0.61,0.5c0.18,0.18,0.35,0.39,0.5,0.6
	c0.14,0.22,0.26,0.45,0.36,0.69c0.1,0.25,0.18,0.5,0.23,0.75c0.05,0.26,0.08,0.53,0.08,0.79C36,48,35.57,49.03,34.83,49.77z"/>
<circle cx="107.56" cy="32" r="32"/>
<line class="st0" x1="107.56" y1="34.46" x2="107.56" y2="15.11"/>
<line class="st1" x1="107.56" y1="46.95" x2="107.56" y2="46.95"/>
</svg>
