<svg width="1288" height="694" viewBox="0 0 1288 694" fill="none" xmlns="http://www.w3.org/2000/svg">
<mask id="mask0_182_452" style="mask-type:alpha" maskUnits="userSpaceOnUse" x="0" y="-1" width="1289" height="695">
<rect x="0.000488281" y="-0.000244141" width="1288" height="694" fill="#D9D9D9"/>
</mask>
<g mask="url(#mask0_182_452)">
<mask id="mask1_182_452" style="mask-type:alpha" maskUnits="userSpaceOnUse" x="226" y="234" width="1783" height="1176">
<ellipse cx="1117.98" cy="822.08" rx="890.984" ry="587.911" fill="#F0F0F0"/>
</mask>
<g mask="url(#mask1_182_452)">
<ellipse cx="1117.98" cy="822.08" rx="890.984" ry="587.911" fill="#F8F8F8"/>
<path d="M1308 667L248.001 667" stroke="#E3E3E3" stroke-width="2"/>
<path d="M1308 620L248.001 620" stroke="#E3E3E3" stroke-width="2"/>
<path d="M1308 573L248.001 573" stroke="#E3E3E3" stroke-width="2"/>
<path d="M1308 526L248.001 526" stroke="#E3E3E3" stroke-width="2"/>
<path d="M1308 479L248.001 479" stroke="#E3E3E3" stroke-width="2"/>
<path d="M1308 431L248.001 431" stroke="#E3E3E3" stroke-width="2"/>
<path d="M1308 384L248.001 384" stroke="#E3E3E3" stroke-width="2"/>
<path d="M1308 337L248.001 337" stroke="#E3E3E3" stroke-width="2"/>
<path d="M1308 290L248.001 290" stroke="#E3E3E3" stroke-width="2"/>
<path d="M1308 243L248.001 243" stroke="#E3E3E3" stroke-width="2"/>
<path d="M285 176L285.001 767" stroke="#E3E3E3" stroke-width="2"/>
<path d="M804 176L804.001 767" stroke="#E3E3E3" stroke-width="2"/>
<path d="M332 176L332.001 767" stroke="#E3E3E3" stroke-width="2"/>
<path d="M851 176L851.001 767" stroke="#E3E3E3" stroke-width="2"/>
<path d="M379 176L379.001 767" stroke="#E3E3E3" stroke-width="2"/>
<path d="M898 176L898.001 767" stroke="#E3E3E3" stroke-width="2"/>
<path d="M427 176L427.001 767" stroke="#E3E3E3" stroke-width="2"/>
<path d="M946 176L946.001 767" stroke="#E3E3E3" stroke-width="2"/>
<path d="M474 176L474.001 767" stroke="#E3E3E3" stroke-width="2"/>
<path d="M993 176L993.001 767" stroke="#E3E3E3" stroke-width="2"/>
<path d="M521 176L521.001 767" stroke="#E3E3E3" stroke-width="2"/>
<path d="M1040 176L1040 767" stroke="#E3E3E3" stroke-width="2"/>
<path d="M568 176L568.001 767" stroke="#E3E3E3" stroke-width="2"/>
<path d="M1087 176L1087 767" stroke="#E3E3E3" stroke-width="2"/>
<path d="M615 176L615.001 767" stroke="#E3E3E3" stroke-width="2"/>
<path d="M1134 176L1134 767" stroke="#E3E3E3" stroke-width="2"/>
<path d="M663 176L663.001 767" stroke="#E3E3E3" stroke-width="2"/>
<path d="M1182 176L1182 767" stroke="#E3E3E3" stroke-width="2"/>
<path d="M710 176L710.001 767" stroke="#E3E3E3" stroke-width="2"/>
<path d="M1229 176L1229 767" stroke="#E3E3E3" stroke-width="2"/>
<path d="M757 176L757.001 767" stroke="#E3E3E3" stroke-width="2"/>
<path d="M1276 176L1276 767" stroke="#E3E3E3" stroke-width="2"/>
<path d="M2007.96 822.08C2007.96 983.984 1908.51 1130.69 1747.45 1236.96C1586.4 1343.23 1363.85 1408.99 1117.98 1408.99C872.106 1408.99 649.558 1343.23 488.507 1236.96C327.448 1130.69 227.993 983.984 227.993 822.08C227.993 660.177 327.448 513.473 488.507 407.199C649.558 300.931 872.106 235.169 1117.98 235.169C1363.85 235.169 1586.4 300.931 1747.45 407.199C1908.51 513.473 2007.96 660.177 2007.96 822.08Z" stroke="#ECECEC" stroke-width="2"/>
</g>
</g>
<g filter="url(#filter0_d_182_452)">
<ellipse cx="402.488" cy="493.991" rx="93.5" ry="93" fill="#F5F5F5"/>
</g>
<path d="M350.534 503.257V479.047C350.534 476.797 348.732 474.98 346.501 474.98C344.269 474.98 342.467 476.797 342.467 479.047V503.257C342.467 505.507 344.269 507.324 346.501 507.324C348.732 507.324 350.534 505.507 350.534 503.257Z" fill="#2A50A9"/>
<path d="M363.145 498.377V474.817C363.145 470.886 359.972 467.687 356.073 467.687C352.174 467.687 349.001 470.886 349.001 474.817V498.377C349.001 502.308 352.174 505.507 356.073 505.507C359.972 505.507 363.145 502.308 363.145 498.377Z" fill="#2A50A9"/>
<path d="M365.699 505.968V466.711C365.699 464.461 363.897 462.645 361.666 462.645C359.434 462.645 357.632 464.461 357.632 466.711V505.968C357.632 508.218 359.434 510.035 361.666 510.035C363.897 510.035 365.699 508.218 365.699 505.968Z" fill="#2A50A9"/>
<path d="M376.724 499.163V476.661C376.724 472.73 373.551 469.531 369.652 469.531C365.753 469.531 362.58 472.73 362.58 476.661V499.163C362.58 503.094 365.753 506.293 369.652 506.293C373.551 506.293 376.724 503.094 376.724 499.163Z" fill="#2A50A9"/>
<path d="M383.284 497.618V476.688C383.284 474.438 381.483 472.621 379.251 472.621C377.019 472.621 375.218 474.438 375.218 476.688V497.618C375.218 499.868 377.019 501.685 379.251 501.685C381.483 501.685 383.284 499.868 383.284 497.618Z" fill="#2A50A9"/>
<path d="M388.877 503.989V469.368C388.877 467.118 387.076 465.301 384.844 465.301C382.612 465.301 380.811 467.118 380.811 469.368V503.989C380.811 506.239 382.612 508.056 384.844 508.056C387.076 508.056 388.877 506.239 388.877 503.989Z" fill="#2A50A9"/>
<path d="M396.164 497.509V477.176C396.164 473.245 392.991 470.046 389.092 470.046C385.193 470.046 382.021 473.245 382.021 477.176V497.509C382.021 501.441 385.193 504.64 389.092 504.64C392.991 504.64 396.164 501.441 396.164 497.509Z" fill="#2A50A9"/>
<path d="M440.907 497.509V476.796C440.907 472.865 437.734 469.666 433.835 469.666C429.937 469.666 426.764 472.865 426.764 476.796V497.509C426.764 501.44 429.937 504.64 433.835 504.64C437.734 504.64 440.907 501.44 440.907 497.509Z" fill="#2A50A9"/>
<path d="M443.462 506.89V469.368C443.462 467.118 441.66 465.301 439.428 465.301C437.197 465.301 435.395 467.118 435.395 469.368V506.89C435.395 509.14 437.197 510.957 439.428 510.957C441.66 510.957 443.462 509.14 443.462 506.89Z" fill="#2A50A9"/>
<path d="M454.486 501.034V479.047C454.486 475.116 451.313 471.917 447.415 471.917C443.516 471.917 440.343 475.116 440.343 479.047V501.034C440.343 504.965 443.516 508.164 447.415 508.164C451.313 508.164 454.486 504.965 454.486 501.034Z" fill="#2A50A9"/>
<path d="M459.434 497.618V472.811C459.434 470.561 457.632 468.745 455.401 468.745C453.169 468.745 451.367 470.561 451.367 472.811V497.618C451.367 499.868 453.169 501.685 455.401 501.685C457.632 501.685 459.434 499.868 459.434 497.618Z" fill="#2A50A9"/>
<path d="M409.206 527.576V505.697C409.206 501.766 406.033 498.567 402.134 498.567C398.235 498.567 395.062 501.766 395.062 505.697V527.576C395.062 531.507 398.235 534.706 402.134 534.706C406.033 534.706 409.206 531.507 409.206 527.576Z" fill="#757581"/>
<path d="M413.642 533.459V514.373C413.642 512.122 411.84 510.306 409.609 510.306C407.377 510.306 405.575 512.122 405.575 514.373V533.459C405.575 535.709 407.377 537.525 409.609 537.525C411.84 537.525 413.642 535.709 413.642 533.459Z" fill="#757581"/>
<path d="M416.25 516.65V499.814C416.25 496.994 413.992 494.717 411.195 494.717C408.399 494.717 406.14 496.994 406.14 499.814V516.65C406.14 519.469 408.399 521.747 411.195 521.747C413.992 521.747 416.25 519.469 416.25 516.65Z" fill="#757581"/>
<path d="M423.053 524.539V510.035C423.053 506.104 419.88 502.905 415.981 502.905C412.083 502.905 408.91 506.104 408.91 510.035V524.539C408.91 528.47 412.083 531.669 415.981 531.669C419.88 531.669 423.053 528.47 423.053 524.539Z" fill="#757581"/>
<path d="M428.028 530.449V505.697C428.028 503.447 426.226 501.63 423.994 501.63C421.762 501.63 419.961 503.447 419.961 505.697V530.449C419.961 532.7 421.762 534.516 423.994 534.516C426.226 534.516 428.028 532.7 428.028 530.449Z" fill="#757581"/>
<g filter="url(#filter1_d_182_452)">
<circle cx="609.488" cy="334.491" r="62.5" fill="#F5F5F5"/>
</g>
<g opacity="0.6">
<path d="M580.507 306.215V365.337C580.507 365.777 580.685 366.202 580.998 366.51C581.311 366.818 581.742 366.994 582.189 366.994H639.839C640.762 366.994 641.521 366.261 641.521 365.337C641.521 364.413 640.777 363.679 639.839 363.679H583.857V306.215C583.857 305.306 583.112 304.558 582.174 304.558C581.236 304.558 580.492 305.291 580.492 306.215H580.507Z" fill="#757581"/>
<path d="M596.512 313.255C598.346 313.255 599.832 311.791 599.832 309.985C599.832 308.178 598.346 306.714 596.512 306.714C594.678 306.714 593.192 308.178 593.192 309.985C593.192 311.791 594.678 313.255 596.512 313.255Z" fill="#C7C7C7"/>
<path d="M589.112 317.729C590.946 317.729 592.432 316.264 592.432 314.458C592.432 312.652 590.946 311.187 589.112 311.187C587.279 311.187 585.792 312.652 585.792 314.458C585.792 316.264 587.279 317.729 589.112 317.729Z" fill="#C7C7C7"/>
<path d="M589.098 326.573C590.931 326.573 592.418 325.108 592.418 323.302C592.418 321.496 590.931 320.031 589.098 320.031C587.264 320.031 585.777 321.496 585.777 323.302C585.777 325.108 587.264 326.573 589.098 326.573Z" fill="#C7C7C7"/>
<path d="M601.339 319.778C601.632 317.995 600.403 316.315 598.593 316.025C596.783 315.736 595.078 316.946 594.784 318.729C594.49 320.512 595.719 322.193 597.529 322.482C599.339 322.771 601.045 321.561 601.339 319.778Z" fill="#C7C7C7"/>
<path d="M598.353 330.418C600.047 329.727 600.852 327.814 600.15 326.145C599.448 324.476 597.506 323.684 595.812 324.375C594.118 325.066 593.313 326.98 594.015 328.648C594.717 330.317 596.659 331.11 598.353 330.418Z" fill="#C7C7C7"/>
<path d="M589.544 335.813C591.378 335.813 592.864 334.348 592.864 332.542C592.864 330.736 591.378 329.271 589.544 329.271C587.71 329.271 586.224 330.736 586.224 332.542C586.224 334.348 587.71 335.813 589.544 335.813Z" fill="#C7C7C7"/>
<path d="M608.811 336.977C609.233 335.219 608.127 333.457 606.343 333.042C604.558 332.627 602.77 333.716 602.349 335.474C601.927 337.232 603.033 338.994 604.817 339.409C606.602 339.824 608.39 338.735 608.811 336.977Z" fill="#9E9E9E"/>
<path d="M615.675 330.789C616.096 329.031 614.991 327.27 613.206 326.855C611.421 326.44 609.633 327.529 609.212 329.287C608.791 331.045 609.896 332.806 611.681 333.221C613.465 333.636 615.254 332.548 615.675 330.789Z" fill="#9E9E9E"/>
<path d="M616.314 325.018C618.148 325.018 619.635 323.554 619.635 321.747C619.635 319.941 618.148 318.477 616.314 318.477C614.481 318.477 612.994 319.941 612.994 321.747C612.994 323.554 614.481 325.018 616.314 325.018Z" fill="#9E9E9E"/>
<path d="M629.878 321.295C630.171 319.512 628.942 317.831 627.132 317.542C625.322 317.253 623.617 318.463 623.323 320.246C623.029 322.029 624.258 323.709 626.068 323.999C627.878 324.288 629.584 323.078 629.878 321.295Z" fill="#9E9E9E"/>
<path d="M622.404 333.524C624.237 333.524 625.724 332.06 625.724 330.254C625.724 328.447 624.237 326.983 622.404 326.983C620.57 326.983 619.083 328.447 619.083 330.254C619.083 332.06 620.57 333.524 622.404 333.524Z" fill="#9E9E9E"/>
<path d="M615.54 341.914C617.374 341.914 618.86 340.45 618.86 338.643C618.86 336.837 617.374 335.373 615.54 335.373C613.706 335.373 612.22 336.837 612.22 338.643C612.22 340.45 613.706 341.914 615.54 341.914Z" fill="#9E9E9E"/>
<path d="M624.28 353.354C626.113 353.354 627.6 351.89 627.6 350.083C627.6 348.277 626.113 346.812 624.28 346.812C622.446 346.812 620.959 348.277 620.959 350.083C620.959 351.89 622.446 353.354 624.28 353.354Z" fill="#737373"/>
<path d="M632.246 358.575C634.079 358.575 635.566 357.111 635.566 355.305C635.566 353.498 634.079 352.034 632.246 352.034C630.412 352.034 628.925 353.498 628.925 355.305C628.925 357.111 630.412 358.575 632.246 358.575Z" fill="#737373"/>
<path d="M626.953 359.644C627.374 357.886 626.269 356.124 624.484 355.709C622.7 355.294 620.911 356.383 620.49 358.141C620.069 359.899 621.174 361.661 622.959 362.076C624.744 362.491 626.532 361.402 626.953 359.644Z" fill="#737373"/>
<path d="M615.987 357.71C617.82 357.71 619.307 356.246 619.307 354.439C619.307 352.633 617.82 351.169 615.987 351.169C614.153 351.169 612.667 352.633 612.667 354.439C612.667 356.246 614.153 357.71 615.987 357.71Z" fill="#737373"/>
<path d="M611.028 356.814C611.449 355.056 610.344 353.294 608.559 352.879C606.774 352.464 604.986 353.553 604.565 355.311C604.144 357.069 605.249 358.831 607.034 359.246C608.818 359.661 610.607 358.572 611.028 356.814Z" fill="#737373"/>
</g>
<g filter="url(#filter2_d_182_452)">
<circle cx="877.489" cy="255.491" r="92.5" fill="#F5F5F5"/>
</g>
<path d="M862.572 219.548H896.347C898.523 219.548 900.28 217.777 900.28 215.582C900.28 213.387 898.523 211.615 896.347 211.615H862.572C860.396 211.615 858.639 213.387 858.639 215.582C858.639 217.777 860.396 219.548 862.572 219.548Z" fill="#DA4F6C"/>
<path d="M878.752 234.225H922.123C924.3 234.225 926.057 232.453 926.057 230.258C926.057 228.063 924.3 226.292 922.123 226.292H878.752C876.575 226.292 874.818 228.063 874.818 230.258C874.818 232.453 876.575 234.225 878.752 234.225Z" fill="#DA4F6C"/>
<path d="M847.443 234.225H865.221C867.398 234.225 869.155 232.453 869.155 230.258C869.155 228.063 867.398 226.292 865.221 226.292H847.443C845.266 226.292 843.509 228.063 843.509 230.258C843.509 232.453 845.266 234.225 847.443 234.225Z" fill="#2A50A9"/>
<path d="M847.443 274.024H896.347C898.524 274.024 900.28 272.252 900.28 270.057C900.28 267.862 898.524 266.091 896.347 266.091H847.443C845.266 266.091 843.509 267.862 843.509 270.057C843.509 272.252 845.266 274.024 847.443 274.024Z" fill="#2A50A9"/>
<path d="M878.752 247.315H922.123C924.3 247.315 926.057 245.543 926.057 243.348C926.057 241.153 924.3 239.382 922.123 239.382H878.752C876.575 239.382 874.818 241.153 874.818 243.348C874.818 245.543 876.575 247.315 878.752 247.315Z" fill="#DA4F6C"/>
<path d="M888.192 261.463H922.123C924.3 261.463 926.057 259.691 926.057 257.496C926.057 255.301 924.3 253.529 922.123 253.529H888.192C886.015 253.529 884.258 255.301 884.258 257.496C884.258 259.691 886.015 261.463 888.192 261.463Z" fill="#DA4F6C"/>
<path d="M885.072 287.246H905.499C907.675 287.246 909.432 285.474 909.432 283.279C909.432 281.085 907.675 279.313 905.499 279.313H885.072C882.895 279.313 881.138 281.085 881.138 283.279C881.138 285.474 882.895 287.246 885.072 287.246Z" fill="#DA4F6C"/>
<path d="M836.639 301.791H857.066C859.242 301.791 860.999 300.019 860.999 297.824C860.999 295.629 859.242 293.857 857.066 293.857H836.639C834.462 293.857 832.706 295.629 832.706 297.824C832.706 300.019 834.462 301.791 836.639 301.791Z" fill="#DA4F6C"/>
<path d="M836.639 287.246H872.118C874.294 287.246 876.051 285.474 876.051 283.279C876.051 281.085 874.294 279.313 872.118 279.313H836.639C834.462 279.313 832.706 281.085 832.706 283.279C832.706 285.474 834.462 287.246 836.639 287.246Z" fill="#2A50A9"/>
<g filter="url(#filter3_d_182_452)">
<ellipse cx="1175.49" cy="225.491" rx="63.5" ry="62.5" fill="#F5F5F5"/>
</g>
<g opacity="0.6">
<path d="M1146.88 194.086V254.103C1146.88 254.549 1147.06 254.981 1147.36 255.294C1147.67 255.607 1148.1 255.785 1148.54 255.785H1205.33C1206.24 255.785 1206.98 255.041 1206.98 254.103C1206.98 253.165 1206.25 252.42 1205.33 252.42H1150.18V194.086C1150.18 193.163 1149.45 192.403 1148.52 192.403C1147.6 192.403 1146.87 193.148 1146.87 194.086H1146.88Z" fill="#757581"/>
<path d="M1155.67 227.943V224.697C1155.67 224.087 1155.17 223.581 1154.57 223.581C1153.96 223.581 1153.47 224.087 1153.47 224.697V227.943C1153.47 228.553 1153.96 229.06 1154.57 229.06C1155.17 229.06 1155.67 228.553 1155.67 227.943Z" fill="#606060"/>
<path d="M1164.95 231.442V226.32C1164.95 225.71 1164.45 225.203 1163.85 225.203C1163.25 225.203 1162.75 225.71 1162.75 226.32V231.442C1162.75 232.052 1163.25 232.559 1163.85 232.559C1164.45 232.559 1164.95 232.052 1164.95 231.442Z" fill="#606060"/>
<path d="M1187.87 230.251V228.524C1187.87 227.913 1187.38 227.407 1186.77 227.407C1186.17 227.407 1185.67 227.913 1185.67 228.524V230.251C1185.67 230.861 1186.17 231.367 1186.77 231.367C1187.38 231.367 1187.87 230.861 1187.87 230.251Z" fill="#606060"/>
<path d="M1187.87 210.389V208.662C1187.87 208.051 1187.38 207.545 1186.77 207.545C1186.17 207.545 1185.67 208.051 1185.67 208.662V210.389C1185.67 210.999 1186.17 211.506 1186.77 211.506C1187.38 211.506 1187.87 210.999 1187.87 210.389Z" fill="#606060"/>
<path d="M1191.14 227.556V225.829C1191.14 225.218 1190.65 224.712 1190.04 224.712C1189.44 224.712 1188.94 225.218 1188.94 225.829V227.556C1188.94 228.166 1189.44 228.673 1190.04 228.673C1190.65 228.673 1191.14 228.166 1191.14 227.556Z" fill="#606060"/>
<path d="M1187.87 225.084V216.121C1187.87 215.511 1187.38 215.005 1186.77 215.005C1186.17 215.005 1185.67 215.511 1185.67 216.121V225.084C1185.67 225.695 1186.17 226.201 1186.77 226.201C1187.38 226.201 1187.87 225.695 1187.87 225.084Z" fill="#606060"/>
<path d="M1191.14 233.988V248.802C1191.14 248.951 1191.07 249.1 1190.98 249.189C1190.88 249.309 1190.73 249.353 1190.6 249.353H1181.73C1181.57 249.353 1181.43 249.294 1181.33 249.189C1181.23 249.085 1181.17 248.936 1181.17 248.802V239.958C1181.17 239.333 1181.17 235.819 1181.17 235.134V233.482C1181.17 232.797 1181.73 232.246 1182.39 232.246C1183.05 232.246 1183.61 232.797 1183.61 233.482V234.658C1183.83 234.36 1184.16 234.181 1184.56 234.181C1185.09 234.181 1185.56 234.539 1185.7 235.03V233.571C1185.7 232.946 1186.19 232.454 1186.8 232.454C1187.42 232.454 1187.9 232.946 1187.9 233.571V233.809C1188.06 233.69 1188.27 233.645 1188.47 233.645C1188.67 233.645 1188.83 233.69 1188.99 233.765C1189.09 233.243 1189.53 232.871 1190.07 232.871C1190.67 232.871 1191.17 233.363 1191.17 233.988H1191.14Z" fill="#606060"/>
<path d="M1172.05 214.215V202.915C1172.05 202.304 1171.55 201.798 1170.95 201.798C1170.35 201.798 1169.85 202.304 1169.85 202.915V214.215C1169.85 214.826 1170.35 215.332 1170.95 215.332C1171.55 215.332 1172.05 214.826 1172.05 214.215Z" fill="#939393"/>
<path d="M1172.05 220.647V218.682C1172.05 218.072 1171.55 217.565 1170.95 217.565C1170.35 217.565 1169.85 218.072 1169.85 218.682V220.647C1169.85 221.258 1170.35 221.764 1170.95 221.764C1171.55 221.764 1172.05 221.258 1172.05 220.647Z" fill="#939393"/>
<path d="M1172.05 199.475V197.51C1172.05 196.9 1171.55 196.393 1170.95 196.393C1170.35 196.393 1169.85 196.9 1169.85 197.51V199.475C1169.85 200.086 1170.35 200.592 1170.95 200.592C1171.55 200.592 1172.05 200.086 1172.05 199.475Z" fill="#939393"/>
<path d="M1177.78 223.819V221.853C1177.78 221.243 1177.28 220.737 1176.68 220.737C1176.08 220.737 1175.58 221.243 1175.58 221.853V223.819C1175.58 224.429 1176.08 224.935 1176.68 224.935C1177.28 224.935 1177.78 224.429 1177.78 223.819Z" fill="#939393"/>
<path d="M1176.68 228.762C1176.98 228.762 1177.26 228.643 1177.46 228.434C1177.67 228.226 1177.78 227.943 1177.78 227.645C1177.78 227.347 1177.67 227.065 1177.46 226.856C1177.26 226.648 1176.98 226.529 1176.68 226.529C1176.39 226.529 1176.11 226.648 1175.91 226.856C1175.7 227.065 1175.58 227.347 1175.58 227.645C1175.58 227.943 1175.7 228.226 1175.91 228.434C1176.11 228.643 1176.39 228.762 1176.68 228.762Z" fill="#939393"/>
<path d="M1202.7 232.663V230.697C1202.7 230.087 1202.2 229.581 1201.6 229.581C1201 229.581 1200.5 230.087 1200.5 230.697V232.663C1200.5 233.273 1201 233.779 1201.6 233.779C1202.2 233.779 1202.7 233.273 1202.7 232.663Z" fill="#939393"/>
<path d="M1201.59 237.606C1201.88 237.606 1202.16 237.487 1202.36 237.278C1202.57 237.07 1202.69 236.787 1202.69 236.489C1202.69 236.191 1202.57 235.909 1202.36 235.7C1202.16 235.492 1201.88 235.373 1201.59 235.373C1201.29 235.373 1201.01 235.492 1200.81 235.7C1200.6 235.909 1200.49 236.191 1200.49 236.489C1200.49 236.787 1200.6 237.07 1200.81 237.278C1201.01 237.487 1201.29 237.606 1201.59 237.606Z" fill="#939393"/>
<path d="M1172.05 227.854V224.533C1172.05 223.923 1171.55 223.417 1170.95 223.417C1170.35 223.417 1169.85 223.923 1169.85 224.533V227.854C1169.85 228.464 1170.35 228.97 1170.95 228.97C1171.55 228.97 1172.05 228.464 1172.05 227.854Z" fill="#939393"/>
<path d="M1178.02 248.802C1178.02 248.951 1177.96 249.1 1177.86 249.189C1177.75 249.309 1177.61 249.353 1177.48 249.353H1168.6C1168.46 249.353 1168.31 249.294 1168.22 249.189C1168.1 249.085 1168.06 248.936 1168.06 248.802V235.343C1168.06 234.732 1168.56 234.226 1169.16 234.226C1169.42 234.226 1169.67 234.33 1169.86 234.479V231.74C1169.86 231.114 1170.36 230.623 1170.96 230.623C1171.56 230.623 1172.06 231.114 1172.06 231.74V233.139C1172.2 232.737 1172.58 232.439 1173 232.439C1173.56 232.439 1174 232.886 1174 233.452V234.539C1174.12 234.137 1174.5 233.839 1174.94 233.839C1175.33 233.839 1175.67 234.077 1175.83 234.405V232.365C1175.83 231.755 1176.33 231.248 1176.93 231.248C1177.53 231.248 1178.03 231.755 1178.03 232.365V248.787L1178.02 248.802Z" fill="#939393"/>
<path d="M1164.95 222.777V220.231C1164.95 219.62 1164.45 219.114 1163.85 219.114C1163.25 219.114 1162.75 219.62 1162.75 220.231V222.777C1162.75 223.387 1163.25 223.893 1163.85 223.893C1164.45 223.893 1164.95 223.387 1164.95 222.777Z" fill="#606060"/>
<path d="M1164.96 248.743C1164.96 249.041 1164.72 249.309 1164.41 249.309L1153.99 249.368C1153.85 249.368 1153.7 249.309 1153.6 249.204C1153.5 249.1 1153.44 248.951 1153.44 248.817V233.214C1153.44 232.603 1153.95 232.097 1154.55 232.097C1155.02 232.097 1155.42 232.395 1155.58 232.812V231.099C1155.58 230.415 1156.12 229.864 1156.8 229.864C1157.43 229.864 1157.94 230.34 1158 230.965V229.387C1158 228.702 1158.56 228.151 1159.22 228.151C1159.88 228.151 1160.43 228.702 1160.43 229.387V236.698C1160.59 236.206 1161.03 235.849 1161.58 235.849C1162.15 235.849 1162.63 236.266 1162.75 236.802V236.191C1162.75 235.581 1163.25 235.075 1163.85 235.075C1164.45 235.075 1164.95 235.581 1164.95 236.191V248.743H1164.96Z" fill="#606060"/>
<path d="M1202.58 240.42V248.802C1202.58 248.951 1202.53 249.1 1202.42 249.189C1202.31 249.308 1202.17 249.353 1202.03 249.353H1194.84C1194.69 249.353 1194.55 249.294 1194.46 249.189C1194.36 249.085 1194.3 248.936 1194.3 248.802V236.742C1194.3 236.132 1194.8 235.626 1195.4 235.626C1196 235.626 1196.5 236.132 1196.5 236.742V237.904C1196.6 237.383 1197.06 237.01 1197.58 237.01C1198.18 237.01 1198.68 237.502 1198.68 238.127V238.901C1198.89 238.648 1199.2 238.469 1199.55 238.469C1200.15 238.469 1200.65 238.961 1200.65 239.586V239.705C1200.85 239.452 1201.16 239.288 1201.5 239.288C1202.1 239.288 1202.6 239.795 1202.6 240.405L1202.58 240.42Z" fill="#939393"/>
</g>
<defs>
<filter id="filter0_d_182_452" x="304.988" y="400.991" width="195" height="194" filterUnits="userSpaceOnUse" color-interpolation-filters="sRGB">
<feFlood flood-opacity="0" result="BackgroundImageFix"/>
<feColorMatrix in="SourceAlpha" type="matrix" values="0 0 0 0 0 0 0 0 0 0 0 0 0 0 0 0 0 0 127 0" result="hardAlpha"/>
<feOffset dy="4"/>
<feGaussianBlur stdDeviation="2"/>
<feComposite in2="hardAlpha" operator="out"/>
<feColorMatrix type="matrix" values="0 0 0 0 0 0 0 0 0 0 0 0 0 0 0 0 0 0 0.25 0"/>
<feBlend mode="normal" in2="BackgroundImageFix" result="effect1_dropShadow_182_452"/>
<feBlend mode="normal" in="SourceGraphic" in2="effect1_dropShadow_182_452" result="shape"/>
</filter>
<filter id="filter1_d_182_452" x="542.988" y="271.991" width="133" height="133" filterUnits="userSpaceOnUse" color-interpolation-filters="sRGB">
<feFlood flood-opacity="0" result="BackgroundImageFix"/>
<feColorMatrix in="SourceAlpha" type="matrix" values="0 0 0 0 0 0 0 0 0 0 0 0 0 0 0 0 0 0 127 0" result="hardAlpha"/>
<feOffset dy="4"/>
<feGaussianBlur stdDeviation="2"/>
<feComposite in2="hardAlpha" operator="out"/>
<feColorMatrix type="matrix" values="0 0 0 0 0 0 0 0 0 0 0 0 0 0 0 0 0 0 0.25 0"/>
<feBlend mode="normal" in2="BackgroundImageFix" result="effect1_dropShadow_182_452"/>
<feBlend mode="normal" in="SourceGraphic" in2="effect1_dropShadow_182_452" result="shape"/>
</filter>
<filter id="filter2_d_182_452" x="780.989" y="162.991" width="193" height="193" filterUnits="userSpaceOnUse" color-interpolation-filters="sRGB">
<feFlood flood-opacity="0" result="BackgroundImageFix"/>
<feColorMatrix in="SourceAlpha" type="matrix" values="0 0 0 0 0 0 0 0 0 0 0 0 0 0 0 0 0 0 127 0" result="hardAlpha"/>
<feOffset dy="4"/>
<feGaussianBlur stdDeviation="2"/>
<feComposite in2="hardAlpha" operator="out"/>
<feColorMatrix type="matrix" values="0 0 0 0 0 0 0 0 0 0 0 0 0 0 0 0 0 0 0.25 0"/>
<feBlend mode="normal" in2="BackgroundImageFix" result="effect1_dropShadow_182_452"/>
<feBlend mode="normal" in="SourceGraphic" in2="effect1_dropShadow_182_452" result="shape"/>
</filter>
<filter id="filter3_d_182_452" x="1107.99" y="162.991" width="135" height="133" filterUnits="userSpaceOnUse" color-interpolation-filters="sRGB">
<feFlood flood-opacity="0" result="BackgroundImageFix"/>
<feColorMatrix in="SourceAlpha" type="matrix" values="0 0 0 0 0 0 0 0 0 0 0 0 0 0 0 0 0 0 127 0" result="hardAlpha"/>
<feOffset dy="4"/>
<feGaussianBlur stdDeviation="2"/>
<feComposite in2="hardAlpha" operator="out"/>
<feColorMatrix type="matrix" values="0 0 0 0 0 0 0 0 0 0 0 0 0 0 0 0 0 0 0.25 0"/>
<feBlend mode="normal" in2="BackgroundImageFix" result="effect1_dropShadow_182_452"/>
<feBlend mode="normal" in="SourceGraphic" in2="effect1_dropShadow_182_452" result="shape"/>
</filter>
</defs>
</svg>
